<svg width="50" height="50" viewBox="0 0 50 50" fill="none" xmlns="http://www.w3.org/2000/svg">
<path fill-rule="evenodd" clip-rule="evenodd" d="M19.4895 26.7501L14.3908 24.7431C13.873 24.5384 13.8685 23.7673 14.3849 23.5573L35.3101 15.0436C35.7537 14.8626 36.2115 15.2726 36.1148 15.7639L32.3597 34.8146C32.2711 35.2644 31.7711 35.4684 31.4182 35.1978L26.292 31.2726C25.9807 31.0342 25.5563 31.047 25.2584 31.303L22.4163 33.7467C22.0864 34.0311 21.5893 33.8727 21.4631 33.444L19.4895 26.7501ZM31.1099 19.2088L21.1451 25.6817C20.7632 25.9303 20.5833 26.4167 20.7067 26.8722L21.7841 30.8649C21.8606 31.1478 22.25 31.1188 22.2871 30.8265L22.5672 28.6369C22.6201 28.2247 22.8065 27.8449 23.0956 27.5611L31.3194 19.4987C31.4732 19.3482 31.289 19.0928 31.1099 19.2088Z" fill="white"/>
<path d="M21.1449 25.6817L31.1097 19.2088C31.2888 19.0928 31.473 19.3482 31.3192 19.4987L23.0954 27.5611C22.8063 27.8449 22.6199 28.2247 22.567 28.6369L22.2869 30.8265C22.2498 31.1188 21.8604 31.1478 21.7839 30.8649L20.7065 26.8722C20.5831 26.4167 20.763 25.9303 21.1449 25.6817Z" fill="#EAEAEA"/>
</svg>
