<svg id="Layer_1" data-name="Layer 1" xmlns="http://www.w3.org/2000/svg" xmlns:xlink="http://www.w3.org/1999/xlink" viewBox="0 0 22.37 22.37"><defs><style>.cls-1{fill:none;}.cls-2{clip-path:url(#clip-path);}</style><clipPath id="clip-path"><rect class="cls-1" width="22.37" height="22.37"/></clipPath></defs><g class="cls-2"><path d="M12.24,11.18l5-5a.74.74,0,0,0,0-1.06.75.75,0,0,0-1.06,0l-5,5-5-5A.75.75,0,1,0,5.16,6.22l5,5-5,5a.75.75,0,0,0,0,1.06.75.75,0,0,0,1.06,0l5-5,5,5a.74.74,0,0,0,.53.22.71.71,0,0,0,.53-.22.74.74,0,0,0,0-1.06Z"/></g></svg>