<svg id="Layer_1" data-name="Layer 1" xmlns="http://www.w3.org/2000/svg" viewBox="0 0 25 25"><defs><style>.cls-1{fill-rule:evenodd;}</style></defs><path class="cls-1" d="M19.25,20.61h0l0,0L22.4,4.82V4.77a1.06,1.06,0,0,0-.46-.94,1.31,1.31,0,0,0-.82-.18,2.68,2.68,0,0,0-.61.13l-.19.06-.06,0h0L2.83,10.71h0l-.12,0a1.93,1.93,0,0,0-.36.2,1.19,1.19,0,0,0-.58,1.09,1.4,1.4,0,0,0,.61.94,2.91,2.91,0,0,0,.32.18l.1.05h.06l3,1a1.91,1.91,0,0,0,.06.58l1.53,5.79A1.56,1.56,0,0,0,9,21.81a1.58,1.58,0,0,0,1.44-1l2.38-2.55,4.1,3.14.05,0a2,2,0,0,0,1,.17,1.52,1.52,0,0,0,.76-.33,1.66,1.66,0,0,0,.39-.44,1.21,1.21,0,0,0,.1-.16s0,0,0-.06v0h0ZM7.43,14.45a.31.31,0,0,1,.14-.34L17.9,7.55s.61-.37.59,0c0,0,.11.06-.22.37s-7.36,7.1-8.08,7.79a.32.32,0,0,0-.08.14L9,20.24Z"/></svg>