<svg id="Layer_1" data-name="Layer 1" xmlns="http://www.w3.org/2000/svg" viewBox="0 0 26 26"><defs><style>.cls-1{fill-rule:evenodd;}</style></defs><path class="cls-1" d="M13,.49c-3.4,0-3.83,0-5.16.08a9.08,9.08,0,0,0-3,.58A6.19,6.19,0,0,0,2.59,2.59,6.28,6.28,0,0,0,1.15,4.81a9.08,9.08,0,0,0-.58,3C.51,9.17.5,9.6.5,13s0,3.83.07,5.16a9.2,9.2,0,0,0,.58,3,6.37,6.37,0,0,0,3.66,3.65,9.05,9.05,0,0,0,3,.59c1.34.06,1.76.07,5.16.07s3.82,0,5.16-.07a9.11,9.11,0,0,0,3-.59,5.93,5.93,0,0,0,2.22-1.44,6.15,6.15,0,0,0,1.44-2.21,9.15,9.15,0,0,0,.58-3c.06-1.33.07-1.76.07-5.16s0-3.82-.07-5.15a9.2,9.2,0,0,0-.58-3,6.15,6.15,0,0,0-1.44-2.21,6.14,6.14,0,0,0-2.22-1.44,9.05,9.05,0,0,0-3-.59C16.82.51,16.39.49,13,.49Zm0,6.09A6.42,6.42,0,1,0,19.42,13,6.42,6.42,0,0,0,13,6.58Zm0,10.58A4.17,4.17,0,1,1,17.16,13,4.16,4.16,0,0,1,13,17.16ZM21.17,6.32a1.5,1.5,0,1,1-1.5-1.5A1.5,1.5,0,0,1,21.17,6.32Z"/></svg>