<svg id="Layer_1" data-name="Layer 1" xmlns="http://www.w3.org/2000/svg" viewBox="0 0 30 31"><defs><style>.cls-1{fill-rule:evenodd;}</style></defs><path class="cls-1" d="M2.73,27a.5.5,0,0,0,.61.62l5.76-1.5a12.54,12.54,0,0,0,6,1.5h0A12.43,12.43,0,0,0,27.5,15.23,12.41,12.41,0,0,0,15.05,2.84,12.37,12.37,0,0,0,4.27,21.42ZM11.11,9.3c.23,0,.48,0,.72.56.16.35.43,1,.65,1.54s.31.76.35.83a.58.58,0,0,1,0,.56l0,.07a2.13,2.13,0,0,1-.29.47l-.18.21c-.11.13-.21.26-.3.35s-.33.33-.15.65a9.79,9.79,0,0,0,1.8,2.22,8.25,8.25,0,0,0,2.38,1.5l.21.09c.32.16.51.14.7-.08s.8-.93,1-1.25.42-.27.72-.16,1.88.89,2.2,1.05l.18.08c.22.11.38.18.44.29a2.74,2.74,0,0,1-.18,1.53,3.27,3.27,0,0,1-2.18,1.52l-.17,0c-.54.07-1.24.15-3.7-.82a13,13,0,0,1-5.43-4.74l-.07-.1h0A6.26,6.26,0,0,1,8.5,12.37,3.53,3.53,0,0,1,9.57,9.76l.06-.06a1.19,1.19,0,0,1,.86-.4Z"/></svg>