<svg id="Layer_1" data-name="Layer 1" xmlns="http://www.w3.org/2000/svg" viewBox="0 0 32 32"><defs><style>.cls-1{fill-rule:evenodd;}</style></defs><path class="cls-1" d="M7.79,13.14A22.92,22.92,0,0,0,19.68,24.69h0l1,.45a3,3,0,0,0,3.65-1l1.7-2.35a.33.33,0,0,0-.06-.46L23,19a.33.33,0,0,0-.47.06l-1.16,1.56a1,1,0,0,1-1.21.31A17.88,17.88,0,0,1,11.3,12a1,1,0,0,1,.32-1.21l1.56-1.16a.34.34,0,0,0,.06-.48l-2.4-3a.32.32,0,0,0-.45-.06L8,7.84a3,3,0,0,0-1,3.68l.74,1.62ZM18.9,26.53A25,25,0,0,1,6,14H6l-.74-1.62A5,5,0,0,1,6.86,6.22L9.22,4.51a2.34,2.34,0,0,1,3.18.43l2.39,3a2.33,2.33,0,0,1-.42,3.34l-.89.66a15.71,15.71,0,0,0,6.82,6.82l.66-.89a2.33,2.33,0,0,1,3.34-.43l3,2.4A2.33,2.33,0,0,1,27.69,23L26,25.34A5,5,0,0,1,19.91,27Z"/></svg>