<svg id="Layer_1" data-name="Layer 1" xmlns="http://www.w3.org/2000/svg" viewBox="0 0 30 31"><defs><style>.cls-1{fill-rule:evenodd;}</style></defs><path class="cls-1" d="M23.1,25.66h0l0-.06L26.88,6.7V6.64a1.29,1.29,0,0,0-.56-1.13,1.61,1.61,0,0,0-1-.21,3.22,3.22,0,0,0-.73.15l-.23.08-.07,0h0l-20.9,8.2H3.34l-.14.06a3.29,3.29,0,0,0-.42.24,1.43,1.43,0,0,0-.7,1.31,1.7,1.7,0,0,0,.73,1.13,3.48,3.48,0,0,0,.38.22l.13.05,0,0h0L7,18.05a2,2,0,0,0,.07.69l1.83,7a1.87,1.87,0,0,0,3.54.24l2.86-3.05,4.91,3.76.07,0a2.31,2.31,0,0,0,1.25.21,1.86,1.86,0,0,0,.91-.4A2.38,2.38,0,0,0,23,26a1,1,0,0,0,.11-.2l0-.06v0ZM8.92,18.26a.38.38,0,0,1,.16-.41L21.48,10s.73-.44.71,0c0,0,.13.08-.26.45s-8.84,8.52-9.7,9.35a.37.37,0,0,0-.1.17l-1.38,5.27Z"/></svg>