<svg id="Layer_1" data-name="Layer 1" xmlns="http://www.w3.org/2000/svg" viewBox="0 0 682.02 682.02"><path d="M347.93,118.21c42.77,1.1,93.95,1.64,145.05,4,30.88,1.45,61.92,4.05,92.36,9.28,32.54,5.58,53.08,26.8,61.58,58.85,6.84,25.8,9.36,52.33,10.28,78.85,1.31,37.6,2.07,75.28,1.34,112.89-.71,36.94-2.88,73.91-11.38,110.11-7.75,33-32.93,56.83-66.56,61-29.18,3.66-58.55,6.94-87.9,7.74-68.41,1.86-136.87,3.23-205.28,2.68-51.33-.41-102.65-3.85-154-6.54a203.65,203.65,0,0,1-39.33-5.76C59.75,542.64,39,519.8,33.48,485.11a759.68,759.68,0,0,1-9.26-87.68c-1.57-37.13-1.1-74.39-.16-111.56.77-30.51,3.07-61.05,9.94-90.94,8.87-38.65,34.65-62.42,74.05-66.16s79-6.3,118.55-8.06C264.2,119,301.88,119.08,347.93,118.21ZM277.6,245.55V437.6l166.74-96Z"/></svg>