<svg width="50" height="50" viewBox="0 0 50 50" fill="none" xmlns="http://www.w3.org/2000/svg">
<path d="M32.861 26.5595C33.6265 27.3298 34.4344 28.0547 35.121 28.9027C35.4243 29.2796 35.7114 29.6685 35.9311 30.1059C36.2423 30.7276 35.9604 31.4118 35.4196 31.4489L32.0577 31.4473C31.1906 31.5215 30.4988 31.1617 29.9172 30.5506C29.4518 30.0619 29.0207 29.5417 28.5731 29.0365C28.3897 28.83 28.1976 28.6357 27.9682 28.4822C27.5092 28.1751 27.1109 28.2691 26.8486 28.7625C26.5815 29.2644 26.5209 29.82 26.4947 30.3793C26.4586 31.1953 26.2194 31.4099 25.4241 31.4472C23.7247 31.5299 22.1118 31.2648 20.6135 30.3811C19.2926 29.6021 18.2682 28.5023 17.3766 27.2572C15.6407 24.8327 14.3113 22.1686 13.1165 19.4299C12.8476 18.8128 13.0443 18.4816 13.7048 18.4699C14.8015 18.4479 15.8981 18.4495 16.9962 18.4683C17.4419 18.475 17.737 18.7386 17.9091 19.1726C18.5025 20.6766 19.2286 22.1075 20.1399 23.4338C20.3826 23.7869 20.6301 24.14 20.9825 24.3885C21.3724 24.6637 21.6692 24.5725 21.8527 24.1248C21.969 23.841 22.02 23.5352 22.0462 23.2312C22.1331 22.1852 22.1446 21.1411 21.9922 20.0988C21.8986 19.4483 21.5432 19.0272 20.9135 18.9041C20.5921 18.8413 20.64 18.7181 20.7956 18.529C21.0658 18.203 21.3199 18 21.8266 18H25.6261C26.2242 18.1217 26.357 18.3987 26.4389 19.0191L26.4422 23.3695C26.4357 23.6096 26.5586 24.3223 26.9782 24.4813C27.3141 24.5945 27.5355 24.3175 27.7371 24.0979C28.6468 23.1027 29.296 21.9265 29.8761 20.7086C30.1335 20.1731 30.3548 19.617 30.5693 19.0613C30.7282 18.6489 30.9776 18.446 31.4282 18.455L35.085 18.4584C35.1934 18.4584 35.3031 18.46 35.4081 18.4785C36.0243 18.5868 36.1932 18.86 36.0029 19.4803C35.703 20.4534 35.1195 21.2643 34.5491 22.079C33.9392 22.9488 33.287 23.7888 32.6823 24.6638C32.1267 25.4628 32.1708 25.8655 32.861 26.5595Z" fill="white"/>
</svg>
