<svg id="Layer_1" data-name="Layer 1" xmlns="http://www.w3.org/2000/svg" viewBox="0 0 31 31"><defs><style>.cls-1{fill-rule:evenodd;}</style></defs><path class="cls-1" d="M13.44,2.4a.94.94,0,0,1,.92-.3c4.51,1,6.79,6,6.25,10.4a8.84,8.84,0,0,1-1.48,4.14v0a5.46,5.46,0,0,0,.48-.27,9.75,9.75,0,0,0,2-1.94l.26-.31a.92.92,0,0,1,.82-.32,1,1,0,0,1,.73.51,9.07,9.07,0,1,1-13.06-3.49l.08-.09.14-.12a9.39,9.39,0,0,0,2.39-2,4.25,4.25,0,0,0,.79-2.69,7,7,0,0,0-.47-2.57A.94.94,0,0,1,13.44,2.4Zm2.08,2.18a8.37,8.37,0,0,1,.1,1.34,6.09,6.09,0,0,1-1.17,3.81,11.32,11.32,0,0,1-2.76,2.41l-.09.09-.16.13a7.18,7.18,0,1,0,11,6.06,7.28,7.28,0,0,0-.24-1.88A9,9,0,0,1,20.62,18a8.25,8.25,0,0,1-4.69,1.18.94.94,0,0,1-.45-1.76,6.12,6.12,0,0,0,2.12-1.82,7,7,0,0,0,1.15-3.28C19.13,9.11,17.83,6,15.52,4.58Z"/></svg>