<svg xmlns="http://www.w3.org/2000/svg" viewBox="0 0 21.88 18.12">
    
    <path fill="currentColor"
        d="M.59,6.14A5.88,5.88,0,0,1,6.68.49a6.23,6.23,0,0,1,4.26,1.82A6.21,6.21,0,0,1,15.2.49a5.88,5.88,0,0,1,6.09,5.65,9.26,9.26,0,0,1-2.23,5.74A21.75,21.75,0,0,1,14.47,16a16.19,16.19,0,0,1-1.82,1.11,3.92,3.92,0,0,1-1.71.53,4,4,0,0,1-1.72-.53A16.11,16.11,0,0,1,7.41,16a21.56,21.56,0,0,1-4.6-4.12A9.25,9.25,0,0,1,.59,6.14Z" />
    <path 
        d="M0,6A6.22,6.22,0,0,1,6.44,0a6.57,6.57,0,0,1,4.5,1.93A6.57,6.57,0,0,1,15.44,0a6.23,6.23,0,0,1,6.44,6A9.74,9.74,0,0,1,19.52,12a22.61,22.61,0,0,1-4.85,4.35,17.55,17.55,0,0,1-1.92,1.18,4.26,4.26,0,0,1-1.81.55,4.26,4.26,0,0,1-1.82-.55,16.57,16.57,0,0,1-1.91-1.18A22.66,22.66,0,0,1,2.35,12,9.79,9.79,0,0,1,0,6Zm6.44-4.1A4.35,4.35,0,0,0,1.88,6a7.89,7.89,0,0,0,1.94,4.9,20.5,20.5,0,0,0,4.46,4A13.91,13.91,0,0,0,10,15.9a2.72,2.72,0,0,0,1,.35,2.86,2.86,0,0,0,1-.35,14.71,14.71,0,0,0,1.7-1.05,20.69,20.69,0,0,0,4.45-4A7.84,7.84,0,0,0,20,6a4.35,4.35,0,0,0-4.56-4.1,5,5,0,0,0-3.76,2,.93.93,0,0,1-.74.36,1,1,0,0,1-.75-.36A4.94,4.94,0,0,0,6.44,1.87Z" />
</svg>