<svg id="Layer_1" data-name="Layer 1" xmlns="http://www.w3.org/2000/svg" viewBox="0 0 32 32"><defs><style>.cls-1{fill-rule:evenodd;}</style></defs><path d="M14.66,14.43a.4.4,0,0,0,0-.52,15,15,0,0,1-1.22-2l.89-.66a2.33,2.33,0,0,0,.42-3.34l-2.39-3a2.34,2.34,0,0,0-3.18-.43L6.86,6.22a5,5,0,0,0-1.63,6.13L6,14H6a24.59,24.59,0,0,0,3.27,5.27.38.38,0,0,0,.58,0l.86-.85a.42.42,0,0,0,0-.54,22.81,22.81,0,0,1-2.92-4.74h0l-.74-1.62A3,3,0,0,1,8,7.84l2.36-1.7a.32.32,0,0,1,.45.06l2.4,3a.34.34,0,0,1-.06.48L11.62,10.8A1,1,0,0,0,11.3,12a17.24,17.24,0,0,0,1.91,3.24.38.38,0,0,0,.59,0Z"/><path class="cls-1" d="M26.67,5.26,5.38,26.55l0,0,0,.05A1,1,0,0,0,5.3,28a1,1,0,0,0,1.41,0l5.61-5.61a24.67,24.67,0,0,0,6.58,4.1l1,.45A5,5,0,0,0,26,25.34L27.69,23a2.33,2.33,0,0,0-.42-3.18l-3-2.4a2.33,2.33,0,0,0-3.34.43l-.66.89a15,15,0,0,1-2.6-1.68L28,6.71a1,1,0,0,0,0-1.42A1,1,0,0,0,26.67,5.26ZM20.2,20.9a17.5,17.5,0,0,1-3.92-2.43L13.74,21a23,23,0,0,0,5.94,3.68h0l1,.45a3,3,0,0,0,3.65-1l1.7-2.35a.33.33,0,0,0-.06-.46L23,19a.33.33,0,0,0-.47.06l-1.16,1.56A1,1,0,0,1,20.2,20.9Z"/></svg>