<svg xmlns="http://www.w3.org/2000/svg" viewBox="0 0 149 149">
    
    <path 
        d="M71.33,3.42a5,5,0,0,1,6.34,0l4.45,3.65a5,5,0,0,0,5.06.77l5.33-2.18a5,5,0,0,1,6.07,1.87l3.17,4.8a5,5,0,0,0,4.61,2.22L112.1,14a5,5,0,0,1,5.24,3.58L119,23.14a5,5,0,0,0,3.75,3.48l5.63,1.21a5,5,0,0,1,4,5l-.08,5.76A5,5,0,0,0,134.78,43l5,2.8a5,5,0,0,1,2.32,5.91l-1.77,5.48a5,5,0,0,0,1.14,5l4,4.16a5,5,0,0,1,.47,6.33l-3.3,4.71a5,5,0,0,0-.39,5.1l2.57,5.16a5,5,0,0,1-1.41,6.18l-4.55,3.53a5,5,0,0,0-1.87,4.76l.94,5.68a5,5,0,0,1-3.17,5.5l-5.39,2a5,5,0,0,0-3.19,4l-.78,5.7a5,5,0,0,1-4.65,4.32l-5.75.35a5,5,0,0,0-4.23,2.88l-2.42,5.22a5,5,0,0,1-5.72,2.75L97,139.17a5,5,0,0,0-4.9,1.51L88.28,145a5,5,0,0,1-6.27.94l-5-2.94a5,5,0,0,0-5.12,0l-5,2.94a5,5,0,0,1-6.27-.94l-3.85-4.27a5,5,0,0,0-4.9-1.51l-5.59,1.35a5,5,0,0,1-5.72-2.75l-2.42-5.22A5,5,0,0,0,34,129.67l-5.75-.35A5,5,0,0,1,23.61,125l-.78-5.7a5,5,0,0,0-3.19-4l-5.39-2a5,5,0,0,1-3.17-5.5l.94-5.68a5,5,0,0,0-1.87-4.76L5.6,93.8a5,5,0,0,1-1.41-6.18l2.57-5.16a5,5,0,0,0-.39-5.1L3.06,72.65a5,5,0,0,1,.48-6.33l4-4.16a5,5,0,0,0,1.14-5L6.88,51.69A5,5,0,0,1,9.2,45.78l5-2.8a5,5,0,0,0,2.56-4.44l-.08-5.76a5,5,0,0,1,4-5l5.63-1.21A5,5,0,0,0,30,23.14l1.62-5.52A5,5,0,0,1,36.9,14l5.73.51a5,5,0,0,0,4.62-2.22l3.17-4.8a5,5,0,0,1,6.07-1.87l5.33,2.18a5,5,0,0,0,5.06-.77Z" />
</svg>