<svg id="Layer_1" data-name="Layer 1" xmlns="http://www.w3.org/2000/svg" xmlns:xlink="http://www.w3.org/1999/xlink" viewBox="0 0 25 24"><defs><style>.cls-1{fill:none;}.cls-2{clip-path:url(#clip-path);}.cls-3{fill-rule:evenodd;}</style><clipPath id="clip-path"><rect class="cls-1" x="0.56" width="24" height="24"/></clipPath></defs><g class="cls-2"><path class="cls-3" d="M2.59,11.29Q11.89,7.24,15,6c5.91-2.46,7.13-2.88,7.93-2.9a1.42,1.42,0,0,1,.83.25.91.91,0,0,1,.3.57,3.56,3.56,0,0,1,0,.84c-.32,3.37-1.71,11.53-2.41,15.3-.3,1.59-.89,2.13-1.46,2.18-1.23.11-2.17-.82-3.37-1.6-1.87-1.23-2.93-2-4.74-3.19C10,16,11.38,15.25,12.57,14c.32-.33,5.76-5.28,5.87-5.73a.45.45,0,0,0-.1-.37.49.49,0,0,0-.44,0q-.28.06-9,5.93a4.07,4.07,0,0,1-2.3.85,15.63,15.63,0,0,1-3.31-.78C2,13.43.92,13.2,1,12.47,1.06,12.09,1.59,11.69,2.59,11.29Z"/></g></svg>