<svg id="Layer_1" data-name="Layer 1" xmlns="http://www.w3.org/2000/svg" viewBox="0 0 50 50"><path d="M25,4.42A20.58,20.58,0,0,0,7.07,35.1L4.46,44.44a.89.89,0,0,0,.21.87,1,1,0,0,0,.65.27.76.76,0,0,0,.21,0l9.75-2.41A20.58,20.58,0,1,0,25,4.42ZM35.35,32.26c-.44,1.22-2.55,2.33-3.56,2.48a7.36,7.36,0,0,1-3.33-.21,31.74,31.74,0,0,1-3-1.09c-5.3-2.26-8.76-7.53-9-7.88s-2.16-2.83-2.16-5.4a5.84,5.84,0,0,1,1.85-4.35,2,2,0,0,1,1.41-.65c.35,0,.71,0,1,0s.76-.13,1.18.89,1.5,3.61,1.63,3.88a1,1,0,0,1,0,.91,3.68,3.68,0,0,1-.53.87c-.27.31-.56.68-.79.92s-.54.54-.24,1.06a15.82,15.82,0,0,0,2.94,3.61A14.39,14.39,0,0,0,27,29.91c.53.26.84.22,1.15-.13s1.32-1.52,1.67-2,.7-.44,1.19-.26,3.08,1.43,3.61,1.69.88.39,1,.61A4.34,4.34,0,0,1,35.35,32.26Z"/></svg>