<svg id="Layer_1" data-name="Layer 1" xmlns="http://www.w3.org/2000/svg" xmlns:xlink="http://www.w3.org/1999/xlink" viewBox="0 0 24 24"><defs><style>.cls-1{fill:none;}.cls-2{clip-path:url(#clip-path);}</style><clipPath id="clip-path"><rect class="cls-1" width="24" height="24"/></clipPath></defs><g class="cls-2"><path class="cls-1" d="M17.5,14.38c-.3-.15-1.76-.87-2-1s-.47-.15-.67.15-.77,1-.95,1.16-.34.22-.64.07a7.93,7.93,0,0,1-2.4-1.47,9.17,9.17,0,0,1-1.67-2.06c-.17-.3,0-.46.14-.61s.29-.34.44-.51a2.14,2.14,0,0,0,.3-.5.56.56,0,0,0,0-.52c-.08-.14-.66-1.61-.92-2.2s-.46-.51-.67-.51H7.82A1.07,1.07,0,0,0,7,6.77,3.31,3.31,0,0,0,6,9.25,5.8,5.8,0,0,0,7.2,12.33a12.32,12.32,0,0,0,5.1,4.48c2.52,1,3,.8,3.59.75a3.05,3.05,0,0,0,2-1.42,2.39,2.39,0,0,0,.17-1.41C18,14.6,17.8,14.53,17.5,14.38Z"/><path d="M17.9,16.14a3.05,3.05,0,0,1-2,1.42c-.55.05-1.07.25-3.59-.75a12.32,12.32,0,0,1-5.1-4.48A5.8,5.8,0,0,1,6,9.25,3.31,3.31,0,0,1,7,6.77a1.07,1.07,0,0,1,.79-.37H8.4c.21,0,.44,0,.67.51S9.91,9,10,9.12a.56.56,0,0,1,0,.52,2.14,2.14,0,0,1-.3.5c-.15.17-.31.38-.44.51s-.31.31-.14.61a9.17,9.17,0,0,0,1.67,2.06,7.93,7.93,0,0,0,2.4,1.47c.3.15.47.13.64-.07s.75-.87.95-1.16.4-.25.67-.15,1.74.82,2,1,.5.22.57.35A2.39,2.39,0,0,1,17.9,16.14Z"/><path d="M20.5,3.48A12,12,0,0,0,.1,11.89a11.85,11.85,0,0,0,1.6,5.95L0,24l6.33-1.66A11.93,11.93,0,0,0,12,23.79h0A11.93,11.93,0,0,0,24,11.9,11.76,11.76,0,0,0,20.5,3.48ZM12.05,21.79h0A10.06,10.06,0,0,1,7,20.41l-.36-.22-3.76,1,1-3.64-.23-.38a9.77,9.77,0,0,1-1.52-5.26,9.94,9.94,0,0,1,17-7,9.82,9.82,0,0,1,2.9,7A9.92,9.92,0,0,1,12.05,21.79Z"/></g></svg>