<svg width="626" height="77" viewBox="0 0 626 77" fill="none" xmlns="http://www.w3.org/2000/svg">
<path d="M108.981 1.04194L92.3811 1.04194L54.6114 65.4052L16.6394 1.04193L0.0595703 1.04193L0.0595637 76.4924L7.80357 76.4924L7.80358 7.13585L12.2316 7.13585L52.5692 76.4924L56.5726 76.4924L96.9102 7.13586L101.217 7.13586L101.217 76.4924L108.981 76.4924L108.981 1.04194Z" fill="white"/>
<path d="M121.72 76.4925L121.72 22.7886L129.484 22.7886L129.484 70.419L131.971 70.419L175.887 22.7886L188.808 22.7886L188.808 76.4925L181.043 76.4925L181.043 28.8825L178.88 28.8825L134.984 76.4925L121.72 76.4925Z" fill="white"/>
<path d="M263.336 29.3309L218.853 29.3309L218.853 56.4988C218.853 69.828 212.457 76.4994 199.665 76.513L197.421 76.513L197.421 69.991L199.685 69.991C201.274 70.1182 202.871 69.888 204.361 69.317C205.85 68.746 207.196 67.8485 208.299 66.6893C210.186 64.4746 211.123 61.003 211.109 56.2746L211.109 22.7886L271.181 22.7886L271.181 76.513L263.336 76.513L263.336 29.3309Z" fill="white"/>
<path d="M349.308 56.2746C349.389 54.5281 349.066 52.7866 348.364 51.1877C347.662 49.5889 346.601 48.1766 345.264 47.0624C342.568 44.7933 338.403 43.6656 332.769 43.6792L291.279 43.6792L291.279 22.7886L283.292 22.7886L283.292 76.513L331.394 76.513C343.323 76.513 349.295 71.9408 349.308 62.7965L349.308 56.2746ZM291.279 50.1603L329.877 50.1603C334.487 50.1603 337.581 50.7717 339.158 52.015C339.991 52.7532 340.641 53.6779 341.055 54.715C341.469 55.752 341.637 56.8725 341.544 57.9866L341.544 61.8998C341.616 63.03 341.422 64.1614 340.98 65.2024C340.537 66.2433 339.858 67.1647 338.996 67.8918C337.298 69.2573 334.245 69.9299 329.796 69.9299L291.279 69.9299L291.279 50.14L291.279 50.1603Z" fill="white"/>
<path d="M408.612 14.5343L385.946 14.5343C382.881 14.5109 379.822 14.8322 376.827 15.4922C374.586 15.9913 372.502 17.0415 370.762 18.5494C369.118 20.1087 367.912 22.077 367.264 24.256C366.416 27.2108 365.98 30.2701 365.969 33.346L365.969 43.2308C365.923 46.2604 366.311 49.2809 367.122 52.1984C367.716 54.3366 368.893 56.2641 370.519 57.7624C372.267 59.2305 374.353 60.2326 376.585 60.6769C379.654 61.2794 382.779 61.5526 385.906 61.4921L408.572 61.4921L408.572 14.6158L408.612 14.5343ZM416.376 14.5343L416.376 61.4106L439.143 61.4107C443.143 61.5669 447.141 61.0503 450.972 59.8821C452.312 59.4323 453.549 58.7174 454.611 57.7795C455.674 56.8416 456.54 55.6995 457.159 54.4199C458.65 50.8596 459.341 47.0105 459.181 43.1492L459.181 33.2645C459.364 29.3884 458.673 25.5209 457.159 21.953C455.835 19.2682 453.542 17.1968 450.749 16.1648C447.056 14.895 443.164 14.3148 439.265 14.4528L416.376 14.5343ZM408.612 0.267627L416.376 0.267628L416.376 7.01374L439.042 7.01374C444.691 6.76302 450.324 7.77207 455.541 9.96895C459.417 11.7341 462.511 14.8756 464.236 18.794C466.134 23.6128 467.022 28.7757 466.844 33.9574L466.844 43.3326C467.076 48.5958 466.144 53.8451 464.114 58.6999C462.352 62.4568 459.214 65.3789 455.359 66.8523C450.102 68.5994 444.572 69.3593 439.042 69.0943L416.376 69.0943L416.376 76.4926L408.612 76.4926L408.612 69.0943L385.946 69.0943C381.588 69.1864 377.234 68.7346 372.986 67.7491C369.864 67.0333 366.967 65.5488 364.554 63.4283C362.275 61.2671 360.614 58.5292 359.742 55.5001C358.636 51.5206 358.092 47.404 358.124 43.2715L358.124 33.8963C358.094 29.7169 358.603 25.5512 359.641 21.5046C360.435 18.3925 362.016 15.5413 364.231 13.2299C366.589 10.9266 369.502 9.28282 372.682 8.46077C377.017 7.36229 381.478 6.85505 385.946 6.95259L408.612 6.95259L408.612 0.206486L408.612 0.267627Z" fill="white"/>
<path d="M538.784 43.6792C538.852 40.9771 538.27 38.2986 537.086 35.8733C535.966 33.7354 534.233 31.9879 532.112 30.8596C529.751 29.6355 527.122 29.0326 524.469 29.1068L500.064 29.1068C497.566 29.0525 495.1 29.6792 492.927 30.9207C490.86 32.1108 489.181 33.8811 488.094 36.016C486.9 38.3873 486.309 41.0207 486.376 43.6792L538.784 43.6792ZM486.376 50.2012L486.376 55.3983C486.376 65.2627 491.302 70.195 501.156 70.195L526.491 70.195C529.801 70.4463 533.085 69.4352 535.69 67.362C536.678 66.5016 537.467 65.4336 538.002 64.2329C538.536 63.0321 538.803 61.7279 538.784 60.412L538.784 59.3318L546.548 59.3319L546.548 60.412C546.53 63.0404 545.907 65.6287 544.728 67.9734C543.371 70.6172 541.258 72.7897 538.663 74.21C535.254 76.0187 531.431 76.8837 527.583 76.7168L501.459 76.7168C493.776 76.7168 488.034 75.0252 484.273 71.6216C480.512 68.218 478.611 63.1635 478.611 56.4989L478.611 42.3749C478.62 38.9837 479.542 35.6586 481.28 32.755C483.167 29.616 485.883 27.0684 489.125 25.3975C492.871 23.4485 497.043 22.4812 501.257 22.5849L523.68 22.5849C531 22.5849 536.621 24.3988 540.604 28.0062C542.51 29.6831 544.029 31.7594 545.056 34.0899C546.083 36.4204 546.592 38.9488 546.548 41.4985L546.548 50.2012L486.376 50.2012Z" fill="white"/>
<path d="M557.972 76.4926L557.972 22.7887L565.736 22.7887L565.736 70.4191L568.243 70.4191L612.139 22.7887L625.059 22.7887L625.059 76.4926L617.295 76.4926L617.295 28.8826L615.152 28.8826L571.236 76.4926L557.972 76.4926Z" fill="white"/>
<path d="M618.569 5.9906L614.266 1.65271L577.079 39.1371L581.382 43.475L618.569 5.9906Z" fill="white"/>
</svg>
