<svg xmlns="http://www.w3.org/2000/svg" viewBox="0 0 220 28" fill="#362E29">
    <path d="M38.34.5H32.5L19.2,23.21,5.84.5H0V27.12H2.73V2.65H4.28l14.2,24.47h1.41L34.09,2.65h1.52V27.12h2.73Z" />
    <path d="M42.82,27.12v-19h2.74V25h.87L61.89,8.17h4.55v19H63.71V10.32h-.77L47.49,27.12Z" />
    <path
        d="M92.67,10.48H77v9.58q0,7.07-6.75,7.06h-.79v-2.3h.8a3.66,3.66,0,0,0,1.64-.23,3.87,3.87,0,0,0,1.39-.93,5.64,5.64,0,0,0,1-3.68V8.17H95.43v19H92.67Z" />
    <path
        d="M122.94,20a4.08,4.08,0,0,0-.34-1.79,4,4,0,0,0-1.09-1.46,6.72,6.72,0,0,0-4.4-1.19h-14.6V8.17H99.7v19h16.93q6.3,0,6.31-4.83Zm-20.43-2.15H116.1a5.61,5.61,0,0,1,3.26.65,2.51,2.51,0,0,1,.84,2.11V22a2.59,2.59,0,0,1-.89,2.11,5.3,5.3,0,0,1-3.24.72H102.51v-7Z" />
    <path
        d="M143.81,5.26h-8a13.9,13.9,0,0,0-3.21.34,4.7,4.7,0,0,0-2.13,1.08,4.47,4.47,0,0,0-1.23,2,11.59,11.59,0,0,0-.46,3.21v3.48a11,11,0,0,0,.41,3.17,4.15,4.15,0,0,0,1.19,2,4.8,4.8,0,0,0,2.14,1,15.7,15.7,0,0,0,3.28.29h8V5.26Zm2.73,0V21.8h8a12.77,12.77,0,0,0,4.16-.54,3.73,3.73,0,0,0,1.28-.74,3.86,3.86,0,0,0,.9-1.19,9.34,9.34,0,0,0,.71-4V11.87a9.09,9.09,0,0,0-.71-4,4.13,4.13,0,0,0-2.26-2,11.33,11.33,0,0,0-4-.6Zm-2.73-5h2.73V2.61h8a13.32,13.32,0,0,1,5.81,1,6.14,6.14,0,0,1,3.06,3.11,13.39,13.39,0,0,1,.92,5.35v3.31a12.71,12.71,0,0,1-1,5.42,5.63,5.63,0,0,1-3.09,2.88,16,16,0,0,1-5.74.79h-8v2.61h-2.73V24.51h-8a18.41,18.41,0,0,1-4.56-.48,6.74,6.74,0,0,1-3-1.52,6.26,6.26,0,0,1-1.69-2.8A15.65,15.65,0,0,1,126,15.4V12.09a17.43,17.43,0,0,1,.53-4.37,6.54,6.54,0,0,1,1.62-2.92,6.63,6.63,0,0,1,3-1.68,17.54,17.54,0,0,1,4.67-.54h8V.23Z" />
    <path
        d="M189.63,15.54a5.94,5.94,0,0,0-.6-2.75A4.15,4.15,0,0,0,187.28,11a5.46,5.46,0,0,0-2.69-.62H176a4.79,4.79,0,0,0-2.51.64,4.28,4.28,0,0,0-1.7,1.8,5.72,5.72,0,0,0-.61,2.7Zm-18.45,2.3v1.84q0,5.22,5.21,5.22h8.91a4.66,4.66,0,0,0,3.24-1,3.21,3.21,0,0,0,.82-1.11,3.26,3.26,0,0,0,.27-1.35v-.38h2.73v.38a5.87,5.87,0,0,1-.64,2.67,5.14,5.14,0,0,1-2.13,2.2,7.59,7.59,0,0,1-3.9.89h-9.2q-4.05,0-6.05-1.8a6.86,6.86,0,0,1-2-5.34v-5a6.61,6.61,0,0,1,.94-3.39,6.91,6.91,0,0,1,2.76-2.6,8.71,8.71,0,0,1,4.27-1h7.89a8.55,8.55,0,0,1,6,1.91,6.18,6.18,0,0,1,2.09,4.76v3.07Z" />
    <path d="M196.38,27.12v-19h2.74V25H200l15.45-16.8H220v19h-2.73V10.32h-.76l-15.46,16.8Z" />
    <path d="M217.71,2.24,216.2.71,203.11,13.94l1.52,1.53Z" />
</svg>