<svg width="1457" height="635" viewBox="0 0 1457 635" fill="none" xmlns="http://www.w3.org/2000/svg">
<g opacity="0.1">
<path d="M59.8001 421.328C106.862 322.266 158.269 239.834 214.02 174.033C269.771 107.51 323.711 57.2552 375.842 23.2702C383.806 18.2086 392.133 13.8701 400.821 10.2547C410.234 6.63922 420.37 3.74688 431.231 1.57765C442.091 -1.3147 450.78 -0.230085 457.296 4.83149C463.812 9.17003 467.07 17.4855 467.07 29.7779C462.726 49.3012 447.883 76.7785 422.542 112.21C397.201 146.918 373.67 176.564 351.949 201.149C330.228 225.011 309.593 247.065 290.044 267.311C276.287 281.773 243.705 309.612 192.299 350.828L137.996 388.79L97.812 413.736C94.9159 415.182 91.2957 418.798 86.9515 424.582C76.815 442.659 68.4886 459.652 61.9723 475.56C40.9752 528.345 29.0286 560.884 26.1325 573.176C22.5123 578.961 19.6161 589.446 17.444 604.63C15.2719 619.092 18.5301 627.408 27.2185 629.577C47.4915 627.408 75.0049 611.138 109.759 580.769C145.236 550.399 180.714 516.414 216.192 478.814C251.67 440.49 271.581 419.521 275.925 415.905C285.337 408.674 291.492 403.974 294.388 401.805L295.474 402.89C293.302 405.782 287.147 411.928 277.011 421.328C274.115 424.221 260.72 438.321 236.827 463.629C212.934 488.214 189.041 512.799 165.147 537.384C141.978 561.245 116.275 583.661 88.0375 604.63C59.8001 624.877 37.355 635 20.7022 635C-10.4313 627.769 -6.44915 576.43 32.6488 480.983L59.8001 421.328ZM99.9841 402.89C146.322 379.028 204.245 336.004 273.753 273.819C300.542 250.68 337.468 210.188 384.53 152.341C432.317 93.7709 457.658 52.9166 460.554 29.7779C460.554 20.3778 457.296 14.2316 450.78 11.3393C444.987 8.44695 438.109 8.44695 430.145 11.3393C422.18 13.5085 414.578 16.7624 407.337 21.1009C400.097 24.7164 394.667 28.3318 391.047 31.9472C375.842 45.6858 360.999 59.786 346.518 74.2476C332.038 87.9863 318.643 101.363 306.334 114.379C294.026 127.394 282.803 139.325 272.667 150.172C262.53 161.018 252.394 172.587 242.257 184.88C232.845 196.449 224.88 206.211 218.364 214.165C211.848 222.119 204.607 231.519 196.643 242.365C189.403 253.211 183.972 260.804 180.352 265.142C177.456 269.481 172.75 276.35 166.233 285.75C160.441 294.427 157.183 299.127 156.459 299.85C128.222 340.343 109.397 374.689 99.9841 402.89Z" fill="#BB9B8C"/>
<path d="M320.487 338.897C327.003 333.112 333.882 332.027 341.122 335.643C346.19 337.812 345.828 341.789 340.036 347.574C311.799 383.728 292.612 409.398 282.475 424.582C273.787 439.767 274.511 448.083 284.647 449.529C297.68 448.806 323.383 426.752 361.757 383.366C371.17 371.074 385.65 354.805 405.199 334.558C419.68 318.65 430.541 313.227 437.781 318.289C442.849 321.904 441.401 328.412 433.437 337.812C411.716 363.843 391.443 391.682 372.618 421.328C369.721 427.113 367.187 431.813 365.015 435.429C363.567 438.321 360.671 444.467 356.327 453.867C352.707 462.544 350.173 469.775 348.724 475.56C347.276 481.344 346.19 487.852 345.466 495.083C344.742 502.314 345.828 507.737 348.724 511.352C352.345 514.968 357.775 516.776 365.015 516.776C376.6 516.776 390.719 511.352 407.371 500.506C424.024 488.937 442.849 474.114 463.846 456.036C484.843 437.236 496.428 427.113 498.6 425.667C515.253 411.928 524.665 404.697 526.837 403.974C530.458 402.528 524.303 409.036 508.374 423.498C506.926 424.221 505.478 425.305 504.03 426.752C498.238 431.813 488.463 440.49 474.707 452.783C461.674 464.352 450.814 473.391 442.125 479.898C434.161 486.406 424.024 493.637 411.716 501.591C400.131 509.545 388.908 515.691 378.048 520.03C362.119 524.368 350.173 521.476 342.208 511.352C334.244 500.506 330.624 488.214 331.348 474.475C332.796 460.013 334.606 447.721 336.778 437.598C337.502 435.429 339.312 430.729 342.208 423.498C345.104 416.267 346.552 411.928 346.552 410.482C345.828 409.036 342.57 411.205 336.778 416.99L306.368 443.021C295.508 453.144 285.733 456.036 277.045 451.698C258.22 443.744 256.772 426.752 272.701 400.721C288.629 373.966 304.558 353.358 320.487 338.897Z" fill="#BB9B8C"/>
<path d="M517.496 380.113C539.217 352.635 560.214 336.727 580.487 332.389C597.863 329.497 607.638 331.666 609.81 338.897C613.43 347.574 609.448 356.974 597.864 367.097C596.415 367.097 595.691 366.012 595.691 363.843L603.294 352.997C607.638 344.32 606.552 340.343 600.036 341.066C586.279 341.789 569.626 355.528 550.077 382.282L544.647 389.874C517.858 429.644 503.015 452.06 500.119 457.121C486.362 480.983 484.19 498.699 493.602 510.268C505.187 520.391 523.288 518.583 547.905 504.845C572.522 491.106 599.312 472.306 628.273 448.444C657.958 423.859 677.145 409.398 685.834 405.059C686.558 405.059 686.92 405.421 686.92 406.144C680.404 410.482 665.923 421.69 643.478 439.767C621.757 457.121 604.018 470.86 590.261 480.983C576.504 491.106 560.576 500.868 542.475 510.268C525.098 518.945 511.703 522.922 502.291 522.199C485.638 520.03 475.139 512.437 470.795 499.422C466.451 485.683 466.813 471.944 471.881 458.206C476.225 443.744 482.018 431.09 489.258 420.244L517.496 380.113Z" fill="#BB9B8C"/>
<path d="M720.503 334.558C734.984 318.65 745.844 313.227 753.084 318.289C758.153 321.904 756.705 328.412 748.74 337.812C727.019 363.843 706.746 391.682 687.921 421.328C685.025 427.113 682.491 431.813 680.319 435.429C678.871 438.321 675.975 444.467 671.63 453.867C668.01 462.544 665.476 469.775 664.028 475.56C662.58 481.344 661.494 487.852 660.77 495.083C660.046 502.314 661.132 507.737 664.028 511.352C667.648 514.968 673.078 516.776 680.319 516.776C691.903 516.776 706.022 511.352 722.675 500.506C739.328 488.937 758.153 474.114 779.15 456.036C800.147 437.236 811.731 427.113 813.903 425.667C830.556 411.928 839.969 404.697 842.141 403.974C845.761 402.528 839.607 409.036 823.678 423.498C822.23 424.221 820.782 425.305 819.334 426.752C813.541 431.813 803.767 440.49 790.01 452.783C776.978 464.352 766.117 473.391 757.429 479.898C749.464 486.406 739.328 493.637 727.019 501.591C715.435 509.545 704.212 515.691 693.351 520.03C677.423 524.368 665.476 521.476 657.512 511.352C649.547 500.506 646.289 488.214 647.737 474.475C648.461 460.013 649.909 447.721 652.081 437.598C662.218 406.505 685.025 372.159 720.503 334.558ZM763.945 279.242C778.426 263.334 789.286 257.911 796.527 262.973C801.595 266.588 800.147 273.096 792.182 282.496C777.702 298.404 766.841 303.827 759.601 298.766C754.532 295.15 755.981 288.642 763.945 279.242Z" fill="#BB9B8C"/>
<path d="M834.708 437.598C821.675 441.936 814.073 437.959 811.901 425.667C809.729 410.482 821.313 392.405 846.655 371.436C861.135 361.312 875.254 355.889 889.011 355.166C902.767 354.443 910.008 359.505 910.732 370.351C910.732 371.074 913.628 368.905 919.42 363.843C922.316 361.674 925.937 358.058 930.281 352.997C935.349 347.935 939.693 343.958 943.313 341.066C946.934 338.174 951.64 337.812 957.432 339.981C963.224 342.151 964.31 346.128 960.69 351.912C910.732 411.928 879.236 458.206 866.204 490.745C861.135 509.545 863.67 518.583 873.806 517.86C882.494 516.414 903.853 503.76 937.883 479.898C976.981 449.529 1007.39 428.559 1029.11 416.99C1053 404.697 1062.42 400.72 1057.35 405.059C1055.18 407.228 1050.83 410.482 1044.32 414.821C1025.49 423.498 1005.22 435.79 983.497 451.698C974.809 457.483 961.776 466.883 944.4 479.898C927.023 492.191 913.99 501.229 905.302 507.014C875.616 527.983 857.515 527.983 850.999 507.014C844.483 485.321 847.379 463.629 859.687 441.936L870.548 420.244C868.376 420.967 862.945 423.859 854.257 428.921C845.569 433.259 839.052 436.152 834.708 437.598ZM877.064 366.012C850.999 395.659 834.708 415.182 828.192 424.582C826.02 427.475 825.296 430.367 826.02 433.259C826.744 436.152 829.64 436.513 834.708 434.344C859.325 424.221 882.132 405.782 903.129 379.028C906.026 372.52 906.388 367.459 904.216 363.843C902.767 360.228 898.785 358.42 892.269 358.42C886.477 358.42 881.408 360.951 877.064 366.012Z" fill="#BB9B8C"/>
<path d="M1029.93 406.144C1045.86 395.297 1055.27 389.513 1058.16 388.79C1061.78 388.067 1064.32 388.428 1065.77 389.874C1067.94 391.32 1068.66 393.49 1067.94 396.382L1065.77 408.313L1066.85 409.398C1071.2 407.228 1074.09 405.421 1075.54 403.974C1083.5 398.19 1095.09 389.151 1110.29 376.859C1125.5 364.566 1137.08 355.889 1145.05 350.828C1153.74 344.32 1163.87 339.258 1175.46 335.643C1189.21 332.751 1197.18 335.643 1199.35 344.32C1202.25 352.274 1200.07 359.866 1192.83 367.097C1185.59 377.943 1172.56 397.467 1153.74 425.667C1135.64 453.867 1121.88 475.921 1112.47 491.829C1085.68 540.999 1082.42 565.945 1102.69 566.668C1104.86 566.668 1107.76 566.307 1111.38 565.584C1125.86 561.245 1143.6 550.761 1164.6 534.13C1185.59 516.776 1204.06 499.783 1219.99 483.152C1236.64 466.521 1252.21 450.252 1266.69 434.344C1281.17 418.436 1288.77 410.121 1289.49 409.398C1291.67 407.228 1293.48 406.144 1294.92 406.144C1296.37 405.421 1296.73 405.421 1296.01 406.144L1292.75 411.567C1292.03 412.29 1287.32 417.713 1278.63 427.836C1269.94 437.959 1264.15 444.467 1261.26 447.359C1258.36 450.252 1252.57 456.398 1243.88 465.798C1235.91 475.198 1229.4 482.068 1224.33 486.406C1219.99 490.745 1213.47 497.252 1204.78 505.929C1196.82 513.883 1189.94 520.029 1184.15 524.368C1178.35 528.707 1171.48 534.13 1163.51 540.637C1156.27 546.422 1149.03 551.484 1141.79 555.822C1135.27 559.438 1128.76 562.691 1122.24 565.584C1109.93 571.369 1098.71 572.092 1088.57 567.753C1078.44 563.415 1072.64 555.461 1071.2 543.891C1069.75 537.384 1070.47 527.26 1073.37 513.522C1078.44 496.168 1089.66 474.475 1107.04 448.444L1166.77 364.928L1177.63 346.489C1179.8 344.32 1179.8 342.512 1177.63 341.066C1176.18 340.343 1174.01 340.343 1171.11 341.066C1160.98 346.128 1142.15 359.143 1114.64 380.113C1094.37 396.02 1076.26 418.798 1060.34 448.444C1055.27 457.844 1047.3 458.567 1036.44 450.613C1030.65 446.275 1028.84 442.659 1031.01 439.767C1033.18 435.429 1037.17 430.005 1042.96 423.498C1048.75 416.267 1052.37 411.567 1053.82 409.398C1053.82 408.674 1054.91 406.867 1057.08 403.974C1059.25 401.082 1060.34 398.913 1060.34 397.467C1061.06 396.02 1060.34 394.574 1058.16 393.128L1032.1 409.398L1029.93 406.144Z" fill="#BB9B8C"/>
<path d="M1441.8 408.313C1413.56 419.882 1383.51 425.667 1351.65 425.667C1350.2 425.667 1348.76 425.667 1347.31 425.667C1345.86 424.944 1344.77 424.582 1344.05 424.582C1362.88 400.721 1370.84 371.797 1367.94 337.812C1365.05 303.104 1350.2 287.196 1323.42 290.089C1298.07 292.981 1281.42 305.996 1273.46 329.135C1265.49 352.274 1268.75 373.605 1283.23 393.128L1271.28 409.398C1249.56 434.705 1241.6 457.844 1247.39 478.814C1250.29 485.321 1256.44 489.298 1265.85 490.745C1274.54 492.191 1282.15 490.745 1288.66 486.406C1307.49 473.391 1325.23 454.229 1341.88 428.921C1349.12 430.367 1358.89 430.367 1371.2 428.921C1397.99 426.028 1419.71 421.328 1436.37 414.821C1443.61 413.375 1450.12 410.121 1455.91 405.059C1457.36 403.613 1457.36 402.89 1455.91 402.89C1453.74 402.89 1449.04 404.697 1441.8 408.313ZM1296.26 304.189C1331.74 283.942 1353.46 290.45 1361.43 323.712C1367.94 351.912 1363.96 380.113 1349.48 408.313C1346.58 414.821 1343.33 419.882 1339.71 423.498C1335.36 423.498 1329.57 421.69 1322.33 418.075C1319.43 416.628 1316.18 414.098 1312.55 410.482L1306.04 406.144L1311.47 399.636L1333.19 375.774C1335.36 373.605 1336.81 370.712 1337.53 367.097C1338.26 363.482 1337.53 360.951 1335.36 359.505C1333.91 357.335 1331.02 356.974 1326.67 358.42C1318.71 362.035 1305.68 372.159 1287.58 388.79C1276.72 374.328 1272.37 359.143 1274.54 343.235C1277.44 326.604 1284.68 313.589 1296.26 304.189ZM1336.45 427.836L1328.85 438.682C1313.64 459.652 1300.25 473.752 1288.66 480.983C1280.7 486.045 1274.91 487.491 1271.28 485.321C1267.66 483.152 1266.22 478.814 1266.94 472.306C1268.39 465.798 1276.72 450.252 1291.92 425.667C1296.99 417.713 1300.61 412.651 1302.78 410.482C1303.5 411.205 1304.59 412.29 1306.04 413.736C1308.21 415.182 1310.38 416.628 1312.55 418.075C1314.73 419.521 1316.9 420.605 1319.07 421.328C1327.76 425.667 1333.55 427.836 1336.45 427.836Z" fill="#BB9B8C"/>
</g>
</svg>
