<svg width="451" height="554" viewBox="0 0 451 554" fill="none" xmlns="http://www.w3.org/2000/svg">
<g style="mix-blend-mode:overlay">
<path d="M86.6381 227.395C64.2992 234.832 44.2373 248.064 29.1279 265.949C29.8842 254.216 32.4928 242.388 37.1193 230.811C39.784 224.143 43.0098 217.829 46.7271 211.9C60.5566 194.904 77.0474 179.936 95.6117 167.552C126.971 151.534 165.247 147.962 201.238 160.768C267.061 184.19 300.28 253.517 275.469 315.603C270.84 327.186 264.519 337.699 256.87 346.987C259.464 296.097 227.453 247.242 174.229 228.303C168.28 226.186 162.269 224.515 156.237 223.273C155.046 223.006 153.853 222.778 152.659 222.586C130.266 218.603 107.696 220.459 87.0511 227.258L87.0513 227.257L86.6381 227.395ZM91.5384 169.724C75.6838 180.772 61.4157 193.731 49.1161 208.241C60.05 192.148 74.6954 179.094 91.5384 169.724ZM225.5 128.179C177.039 128.179 132.142 142.589 95.3602 167.119C75.4615 177.287 58.3364 192.449 46.319 211.609C30.6893 230.823 18.4517 252.623 10.4514 276.213C3.82228 256.182 0.250051 234.878 0.250052 212.786C0.250057 95.4189 101.084 0.250015 225.5 0.250021C349.916 0.250026 450.75 95.4189 450.75 212.786C450.75 234.878 447.178 256.182 440.549 276.213C411.425 190.339 326.15 128.179 225.5 128.179ZM188.134 308.27C189.098 285.666 174.815 264.044 151.173 255.632C127.529 247.218 101.679 254.563 86.5956 272.138C86.9658 267.058 88.1181 261.943 90.1205 256.932C99.8418 232.606 126.362 218.876 152.562 223.077C153.755 223.289 154.947 223.517 156.138 223.763C158.48 224.287 160.812 224.958 163.124 225.78C192.405 236.199 207.172 267.032 196.14 294.637C194.135 299.653 191.416 304.219 188.134 308.27ZM84.6906 228.589C85.2535 228.392 85.8178 228.197 86.3837 228.007C83.3125 242.907 83.3238 257.9 86.0835 272.291C86.0703 272.482 86.0582 272.673 86.0471 272.864L86.0035 273.62L86.2796 273.289C94.312 313.251 123.562 348.423 166.834 363.82C196.017 374.204 226.699 373.859 254.01 364.865C252.665 371.15 250.767 377.415 248.292 383.609C241.864 399.695 232.17 413.719 220.189 425.263C126.209 423.212 46.4666 366.85 14.8263 288.161C18.8177 280.484 23.593 273.362 29.0242 266.85C43.6542 249.311 63.0438 236.201 84.6906 228.589ZM14.5236 288.748C46.2936 367.281 125.882 423.511 219.679 425.752C185.398 458.406 132.708 470.922 84.1735 453.652C18.3502 430.23 -14.8689 360.904 9.94246 298.817C11.3223 295.364 12.8526 292.006 14.5236 288.748ZM14.2768 288.135C12.5214 291.527 10.9183 295.028 9.47817 298.631C-15.4465 361.001 17.936 430.613 84.0059 454.123C132.884 471.515 185.978 458.811 220.387 425.768C222.087 425.803 223.791 425.821 225.5 425.821C326.15 425.821 411.425 363.661 440.549 277.787C447.178 297.818 450.75 319.122 450.75 341.214C450.75 458.581 349.916 553.75 225.5 553.75C101.084 553.75 0.250041 458.581 0.250046 341.214C0.250047 319.122 3.82231 297.818 10.4514 277.787C11.6348 281.276 12.9108 284.726 14.2768 288.135Z" stroke="white" stroke-width="0.5" vector-effect="non-scaling-stroke"/>
</g>
</svg>
